<svg width="54" height="54" viewBox="0 0 54 54" fill="none" xmlns="http://www.w3.org/2000/svg">
<path d="M27 54C41.9117 54 54 41.9117 54 27C54 12.0883 41.9117 0 27 0C12.0883 0 0 12.0883 0 27C0 41.9117 12.0883 54 27 54Z" fill="#FFCC02"/>
<path d="M10.908 27.054H5.508V4.806H0V0.972L10.908 0V27.054Z" transform="translate(26.568 12.2581)" fill="#FF3366"/>
<path d="M9.828 12.474H7.398L2.484 4.104H2.43V12.474H0V0.215999H2.43L7.344 8.586H7.398V0.215999H9.828V12.474ZM10.908 2.862C10.908 2.052 11.178 1.35 11.718 0.81C12.258 0.27 12.96 0 13.824 0C14.688 0 15.39 0.27 15.93 0.81C16.47 1.35 16.74 1.998 16.74 2.862V3.834C16.74 4.644 16.47 5.346 15.93 5.886C15.39 6.426 14.688 6.642 13.824 6.642C12.96 6.642 12.204 6.372 11.718 5.886C11.232 5.4 10.908 4.698 10.908 3.888V2.862ZM17.01 10.152H12.258V8.262H17.01V10.152ZM12.366 3.834C12.366 4.32 12.474 4.698 12.744 4.968C13.014 5.238 13.338 5.4 13.824 5.4C14.256 5.4 14.634 5.238 14.904 4.968C15.174 4.698 15.282 4.32 15.282 3.834V2.862C15.282 2.376 15.174 1.998 14.904 1.728C14.634 1.458 14.31 1.296 13.824 1.296C13.338 1.296 13.014 1.458 12.744 1.728C12.474 1.998 12.366 2.376 12.366 2.862V3.834Z" transform="translate(13.392 26.838)" fill="#FF3366"/>
</svg>
