<svg width="50" height="64" viewBox="0 0 50 64" fill="none" xmlns="http://www.w3.org/2000/svg">
<path d="M49.3516 34.4436V9.94909C49.3516 9.94909 42.4862 10.4727 36.1443 7.73818C30.3262 5.23636 24.6825 0 24.6825 0C24.6825 0 19.0389 5.23636 13.2207 7.73818C6.93707 10.4727 0.0134369 9.94909 0.0134369 9.94909V34.5018C0.0134369 34.5018 -0.684745 43.4036 7.98435 52.8873C13.6862 59.1127 24.6825 64 24.6825 64C24.6825 64 35.6789 59.0545 41.3807 52.8873C50.0498 43.4036 49.3516 34.4436 49.3516 34.4436Z" fill="#FFCC02"/>
<path d="M28.3345 17.0473C28.3345 16 27.9273 15.36 27.52 15.0109C27.9273 14.6618 28.3345 14.0218 28.3345 12.8C28.3345 10.9964 26.88 10.3564 26.0073 10.2982H19.2582C19.0836 10.2982 19.0255 10.24 18.9091 10.1236C18.7345 9.89091 18.6764 9.36727 19.0255 8.55273C19.8982 6.51636 20.3636 5.00364 20.3636 3.84C20.3636 1.97818 19.4327 0 17.7455 0C16.8727 0 16.7564 0.523636 16.64 1.04727L16.5818 1.33818C16.4073 2.09454 15.4764 4.48 13.7891 6.63273C12.0436 8.90182 11.0545 10.3564 9.36727 12.9745C8.26182 14.6618 6.98182 15.5927 5.46909 15.7091V13.9055C5.46909 13.6727 5.29454 13.4982 5.06182 13.4982H0.407272C0.174545 13.4982 0 13.6727 0 13.9055V28.6836C0 28.9164 0.174545 29.0909 0.407272 29.0909H5.06182C5.29454 29.0909 5.46909 28.9164 5.46909 28.6836V26.7055H9.89091C10.24 26.7055 10.6473 26.8218 11.2291 26.9964C12.4509 27.3455 14.2545 27.8109 17.7455 27.8109C23.1564 27.8109 25.5418 27.1709 25.8327 25.7164C26.0073 24.8436 25.9491 24.2036 25.6 23.68C26.3564 23.3891 27.52 22.6909 27.52 21.2945C27.52 20.3055 27.2291 19.7236 26.9382 19.3745C27.5782 18.9673 28.3345 18.2109 28.3345 17.0473Z" transform="translate(10.5443 14.08)" fill="#FF3366"/>
</svg>
