<svg width="54" height="54" viewBox="0 0 54 54" fill="none" xmlns="http://www.w3.org/2000/svg">
<path d="M27 54C41.9117 54 54 41.9117 54 27C54 12.0883 41.9117 0 27 0C12.0883 0 0 12.0883 0 27C0 41.9117 12.0883 54 27 54Z" fill="#FFCC03"/>
<path d="M25.1327 37.0237V42.8104H20.6493V37.0237H17V33.4265H20.6493V30.455H17V26.5972H20.6493V12H28.1043C35.5071 12 39 15.7014 39 21.2796C39 26.91 35.5071 30.455 28.1043 30.455H25.1327V33.4787H33.0047V37.0758H25.1327V37.0237ZM25.1327 26.545H28.1043C33.2133 26.545 34.4645 23.6256 34.4645 21.1754C34.4645 18.7251 33.2133 16.0663 28.1043 16.0663H25.1327V26.545Z" fill="#FF3366"/>
</svg>
