<svg width="354" height="112" viewBox="0 0 354 112" fill="none" xmlns="http://www.w3.org/2000/svg">
<path d="M73.3984 111.07H0L22.4003 28.0696H95.7987L73.3984 111.07Z" fill="#FF3366"/>
<path d="M22.9715 97.1809L26.1446 85.4211L52.7979 63.172C55.6009 60.7879 56.7074 59.3573 57.2861 57.2119C58.1865 53.8745 56.8028 51.8883 53.6004 51.8883C50.1601 51.8883 47.7348 54.6423 46.5686 58.3774H33.4435C34.5475 54.8809 35.4454 52.4451 36.8838 50.3781C41.3402 43.942 48.7726 40.1285 56.8562 40.1285C67.6615 40.1285 73.1798 46.9611 70.4353 57.1324C69.0197 62.3777 66.8081 65.2378 59.6173 71.1183L42.1516 85.4211H62.8006L59.6275 97.1809H22.9715Z" fill="white"/>
<path fill-rule="evenodd" clip-rule="evenodd" d="M83.3992 111.07H156.952L179.399 28.0696H105.847L83.3992 111.07ZM139.596 40.3733C146.117 40.3733 150.811 42.422 153.795 46.6779C156.664 50.7753 157.051 55.819 154.856 63.9369L153.514 68.9013C153.408 69.2912 153.304 69.6804 153.199 70.0687C151.131 77.764 149.153 85.1218 141.776 91.1236C136.569 95.3795 130.767 97.4282 124.325 97.4282C117.725 97.4282 113.11 95.3795 110.125 91.1236C105.996 85.2166 108.029 77.6996 109.904 70.7646C109.93 70.6686 109.956 70.5727 109.982 70.4769L110.941 66.9307C113.902 55.9763 116.455 51.2484 122.143 46.6779C127.351 42.422 133.154 40.3733 139.596 40.3733ZM139.19 70.3976L140.234 66.5368C141.662 61.2565 142.235 57.0799 141.256 55.1104C140.412 53.5337 138.657 52.6666 136.35 52.6666C134.044 52.6666 131.822 53.5337 130.124 55.1104C128.079 57.0799 126.393 61.2565 124.965 66.5368L123.92 70.3976C121.98 77.5681 121.684 80.7204 122.685 82.6118C123.53 84.1873 125.341 85.1336 127.569 85.1336C129.797 85.1336 132.121 84.1873 133.818 82.6118C135.84 80.7204 137.25 77.5693 139.19 70.3976Z" fill="#4F4F4F"/>
<path fill-rule="evenodd" clip-rule="evenodd" d="M166.952 111.07H240.504L262.952 28.0696H189.399L166.952 111.07ZM193.151 85.4211L189.971 97.1808H226.704L229.884 85.4211H209.192L226.694 71.1182C233.9 65.2377 236.116 62.3776 237.535 57.1323C240.285 46.9611 234.755 40.1285 223.927 40.1285C215.827 40.1285 208.379 43.9419 203.913 50.378C202.471 52.4451 201.572 54.8809 200.465 58.3773H213.618C214.787 54.6422 217.217 51.8882 220.665 51.8882C223.874 51.8882 225.26 53.8745 224.358 57.2118C223.778 59.3572 222.669 60.7879 219.86 63.1719L193.151 85.4211Z" fill="#4F4F4F"/>
<path d="M350.553 13H277L280.447 0H354L350.553 13Z" fill="url(#paint0_linear)"/>
<path fill-rule="evenodd" clip-rule="evenodd" d="M254.638 95.713H328.352L350.848 12.3565H277.135L254.638 95.713ZM287.936 82.2567L303.4 24.9567H317.582L302.118 82.2567H287.936Z" fill="#4F4F4F"/>
<defs>
<linearGradient id="paint0_linear" x1="318.908" y1="15.4953" x2="319" y2="-2.96004e-07" gradientUnits="userSpaceOnUse">
<stop/>
<stop offset="0.0001" stop-color="#4F4F4F"/>
<stop offset="1" stop-color="white" stop-opacity="0"/>
</linearGradient>
</defs>
</svg>
