<svg width="200" height="40" viewBox="0 0 200 40" fill="none" xmlns="http://www.w3.org/2000/svg">
<path d="M16.3655 0.214528H6.86585L1.94896e-06 25.6551H9.49968C12.3778 25.6551 14.9031 24.833 17.0835 23.1542C18.6247 21.9749 20.1239 20.1524 20.6896 18.7237C21.1883 17.5448 21.7806 15.6151 22.5039 12.9351L23.1308 10.6123C24.1718 6.75341 24.0307 4.60971 22.5991 2.71595C21.3511 1.07211 19.2436 0.214528 16.3655 0.214528ZM16.3512 12.3988L16.0132 13.6495C15.6375 15.0434 14.9882 17.5797 13.9802 18.6518C13.0718 19.6172 11.9749 20.0816 10.5721 20.0816H7.80092L11.6583 5.78909H14.4289C15.8323 5.78909 16.6785 6.25302 17.0659 7.2184C17.4193 8.03952 17.2671 9.00437 16.3512 12.3988ZM45.6613 2.85861C44.3111 0.928917 42.1871 -2.66068e-07 39.2366 -2.66068e-07C36.3218 -2.66068e-07 33.6965 0.928917 31.3399 2.85861C28.7662 4.93098 27.6113 7.07467 26.2713 12.0416L25.8375 13.6495C24.9796 16.8299 24.0079 20.2956 25.9019 23.0111C27.2526 24.9408 29.341 25.8697 32.3271 25.8697C35.242 25.8697 37.8673 24.9408 40.2233 23.0111C43.7294 20.1524 44.5399 16.6154 45.5341 12.9351L46.1413 10.6841C47.1344 7.00334 46.9593 4.71645 45.6613 2.85861ZM39.5256 11.863L39.053 13.6136C38.1754 16.8653 37.5373 18.2941 36.6225 19.1517C35.8545 19.866 34.8029 20.2951 33.7949 20.2951C32.7869 20.2951 31.9674 19.866 31.5853 19.1517C31.1324 18.2941 31.2659 16.8648 32.1441 13.6136L32.6166 11.863C33.2627 9.46883 34.0259 7.57506 34.9508 6.68208C35.7193 5.96716 36.7247 5.57403 37.7683 5.57403C38.8119 5.57403 39.606 5.96716 39.9881 6.68208C40.4309 7.57506 40.1717 9.46883 39.5256 11.863ZM71.0246 0.214528L62.2397 11.4339L59.5101 0.214528H53.3212L46.4553 25.6551H52.7522L56.0407 13.4709L57.9784 19.7593H62.0082L67.3392 13.4709L64.0507 25.6551H70.3477L77.2135 0.214528H71.0246ZM89.1251 0.214528L72.9395 25.6551H79.5243L81.8058 21.8676H89.6861L89.8516 25.6551H96.4364L93.983 0.214528H89.1251ZM84.9772 16.6508L89.1123 9.86143L89.4391 16.6508H84.9772ZM105.894 0.214528L99.0282 25.6551H105.325L112.191 0.214528H105.894ZM131.082 0.214528L127.629 13.0059L122.878 0.214528H117.373L110.507 25.6551H116.804L120.256 12.8638L125.008 25.6551H130.513L137.379 0.214528H131.082ZM150.126 10.1837L147.148 9.75469C145.766 9.54016 145.122 8.8617 145.411 7.78906C145.806 6.32435 147.332 5.46677 149.6 5.46677C150.715 5.46677 151.576 5.60996 152.281 5.93123C152.799 6.14576 153.065 6.36028 153.585 6.96741L158.603 3.03721C157.564 1.82243 157.058 1.42931 156.006 0.928918C154.694 0.321793 152.946 -2.66068e-07 151.111 -2.66068e-07C145.102 -2.66068e-07 140.593 3.10855 139.233 8.14679C138.105 12.3274 139.752 14.757 144.184 15.4001L147.164 15.8291C148.617 16.0436 149.127 16.6867 148.78 17.9728C148.365 19.5094 146.929 20.2956 144.483 20.2956C142.936 20.2956 141.708 20.0452 140.645 19.5807C140.039 19.2949 139.799 19.1163 139.244 18.5091L134.133 22.5112C135.252 23.8332 135.8 24.3336 136.889 24.8335C138.397 25.5125 140.315 25.8697 142.439 25.8697C148.916 25.8697 153.668 22.7971 155.036 17.7229C156.251 13.221 154.702 10.8263 150.126 10.1837Z" transform="translate(41.3968 10.1335)" fill="#F2F2F2"/>
<path d="M-2.4362e-07 0H30.7146L21.341 34.7319" transform="translate(16.2213)" fill="#FFC100"/>
<path d="M30.714 34.7319H0L9.37355 1.41097e-07H40.0876L30.714 34.7319Z" transform="translate(0 5.26807)" fill="#DA1C5C"/>
<path d="M1.46172e-07 23.8739L1.32783 18.953L12.481 9.64267C13.654 8.64506 14.117 8.04639 14.3592 7.14865C14.736 5.7521 14.1569 4.92094 12.8169 4.92094C11.3773 4.92094 10.3624 6.07337 9.87435 7.63636H4.38209C4.84404 6.17323 5.21977 5.15396 5.82168 4.28898C7.68649 1.59575 10.7966 2.4188e-07 14.1793 2.4188e-07C18.7008 2.4188e-07 21.01 2.85914 19.8615 7.11536C19.2692 9.31031 18.3437 10.5071 15.3347 12.9679L8.02604 18.953H16.6668L15.3389 23.8739H1.46172e-07Z" transform="translate(9.61255 10.3142)" fill="white"/>
</svg>
